<?xml version="1.0" encoding="iso-8859-1"?>
<!-- Generator: Adobe Illustrator 19.0.0, SVG Export Plug-In . SVG Version: 6.00 Build 0)  -->
<svg xmlns="http://www.w3.org/2000/svg" xmlns:xlink="http://www.w3.org/1999/xlink" version="1.1" id="Layer_1" x="0px" y="0px" viewBox="0 0 512 512" style="enable-background:new 0 0 512 512;" xml:space="preserve" width="512px" height="512px">
<g>
	<g>
		<path d="M448.532,64.177H170.429c-5.964,0-11.638,2.575-15.565,7.063L5.117,242.38c-6.822,7.798-6.822,19.441,0,27.239    l149.748,171.14c3.927,4.489,9.601,7.063,15.565,7.063h278.102c34.996,0,63.468-28.472,63.468-63.468V127.644    C512,92.649,483.528,64.177,448.532,64.177z M470.635,384.355c0,12.188-9.916,22.102-22.103,22.102H179.814L48.163,256    l131.651-150.457h268.717c12.188,0,22.103,9.915,22.103,22.102V384.355z" fill="#FFFFFF"/>
	</g>
</g>
<g>
	<g>
		<path d="M398.979,177.198c-8.077-8.077-21.172-8.077-29.249,0L241.375,305.553c-8.077,8.077-8.077,21.172,0,29.249    c4.038,4.039,9.332,6.058,14.625,6.058s10.586-2.019,14.625-6.058l128.355-128.356    C407.055,198.37,407.055,185.275,398.979,177.198z" fill="#FFFFFF"/>
	</g>
</g>
<g>
	<g>
		<path d="M398.98,305.553L270.624,177.198c-8.077-8.077-21.172-8.077-29.249,0c-8.077,8.076-8.077,21.171,0,29.248l128.356,128.356    c4.038,4.039,9.332,6.058,14.625,6.058c5.292,0,10.586-2.019,14.625-6.058C407.056,326.725,407.056,313.63,398.98,305.553z" fill="#FFFFFF"/>
	</g>
</g>
<g>
</g>
<g>
</g>
<g>
</g>
<g>
</g>
<g>
</g>
<g>
</g>
<g>
</g>
<g>
</g>
<g>
</g>
<g>
</g>
<g>
</g>
<g>
</g>
<g>
</g>
<g>
</g>
<g>
</g>
</svg>
